<svg xmlns="http://www.w3.org/2000/svg" viewBox="0 0 4374 632" version="1.1"><path d="" stroke="none" fill="rgb(0, 81, 121)" fill-rule="evenodd"/><path d="M 1373.511 1.250 C 1372.826 3.261, 1261 618.661, 1261 620.422 C 1261 621.867, 1265.210 621.996, 1304.682 621.761 L 1348.365 621.500 1379.637 449.500 C 1396.837 354.900, 1411.169 276.466, 1411.486 275.201 L 1412.062 272.903 1503.281 273.284 C 1583.832 273.621, 1595.494 273.863, 1603 275.353 C 1630.282 280.770, 1650.516 290.961, 1661.721 304.930 C 1667.051 311.573, 1672.278 322.055, 1674.723 331 C 1676.129 336.143, 1676.484 341.152, 1676.421 355 L 1676.342 372.500 1654.148 494 C 1641.941 560.825, 1631.688 616.967, 1631.363 618.760 L 1630.773 622.021 1675.108 621.760 L 1719.443 621.500 1741.657 499.500 C 1764.575 373.637, 1766.514 361.818, 1767.584 341.500 C 1769.409 306.825, 1760.261 271.965, 1743.433 249.466 C 1719.497 217.465, 1681.555 198.475, 1626.223 190.803 C 1611.304 188.735, 1605.816 188.594, 1518.934 188.062 L 1427.368 187.500 1444.139 95.500 C 1453.362 44.900, 1460.930 2.712, 1460.955 1.750 C 1460.997 0.109, 1458.278 0, 1417.469 0 C 1383.537 0, 1373.843 0.276, 1373.511 1.250 M 1990.138 59.578 C 1947.744 65.752, 1914.150 85.641, 1893.177 116.983 C 1885.320 128.724, 1879.776 140.317, 1874.997 155 C 1871.465 165.850, 1865.477 197.500, 1829.635 394.750 L 1788.343 622 1837.101 622 L 1885.858 622 1886.912 616.750 C 1887.492 613.863, 1905.504 514.975, 1926.941 397 C 1948.377 279.025, 1966.600 180.241, 1967.437 177.479 C 1972.226 161.670, 1986.254 151.991, 2004.355 152.006 C 2018.153 152.016, 2026.055 156.238, 2030.850 166.160 C 2033.993 172.664, 2126.760 507.762, 2133.511 537 C 2137.854 555.807, 2140.980 565.225, 2146.951 577.500 C 2156.551 597.234, 2169.457 610.607, 2187.500 619.515 C 2205.557 628.431, 2223.020 631.998, 2248.500 631.975 C 2285.467 631.941, 2314.060 623.965, 2341 606.170 C 2367.962 588.361, 2389.907 553.768, 2397.502 517.103 C 2400.054 504.786, 2479 70.326, 2479 68.602 C 2479 67.154, 2474.288 67, 2430.079 67 L 2381.159 67 2380.591 69.750 C 2380.279 71.263, 2362.466 169.250, 2341.007 287.500 C 2319.548 405.750, 2301.489 504.750, 2300.874 507.500 C 2299.337 514.381, 2294.392 523.449, 2290.139 527.183 C 2283.998 532.574, 2274.657 536.293, 2265.992 536.794 C 2252.078 537.600, 2241.541 532.591, 2235.919 522.500 C 2233.940 518.948, 2219.075 466.368, 2184.609 341 C 2157.921 243.925, 2134.706 158.650, 2133.019 151.500 C 2128.743 133.366, 2125.636 124.226, 2119.422 111.500 C 2104.878 81.715, 2080.842 64.771, 2045.739 59.559 C 2032.794 57.636, 2003.401 57.647, 1990.138 59.578 M 18 67.777 C 18 68.204, 14.175 89.561, 9.500 115.237 C 4.825 140.913, 1 162.613, 1 163.460 C 1 164.834, 9.696 165, 81.611 165 L 162.223 165 161.620 168.250 C 161.288 170.037, 142.793 271.625, 120.519 394 C 98.244 516.375, 79.755 617.738, 79.431 619.250 L 78.841 622 128.189 622 L 177.537 622 219.055 393.750 L 260.574 165.500 341.537 165 L 422.500 164.500 430.648 120 C 435.129 95.525, 439.094 73.588, 439.459 71.250 L 440.123 67 229.061 67 C 112.978 67, 18 67.349, 18 67.777 M 547 188.695 C 529.024 189.757, 502.426 195.453, 487.049 201.534 C 476.399 205.746, 461.713 213.629, 453 219.812 C 443.708 226.405, 427.841 242.079, 420.416 252 C 408.605 267.782, 396.841 293.481, 391.552 315.057 C 388.606 327.076, 361.573 475.246, 359.453 491 C 357.597 504.783, 357.629 526.166, 359.523 537.843 C 366.798 582.698, 395.366 609.122, 448 619.680 C 455.732 621.231, 469.843 621.415, 604.175 621.718 C 744.921 622.035, 751.874 621.967, 752.370 620.275 C 753.360 616.902, 767 541.242, 767 539.124 L 767 537 630.131 537 C 479.499 537, 482.328 537.107, 469.057 530.925 C 459.316 526.388, 454.615 522.025, 450.512 513.713 C 447.894 508.410, 446.717 504.402, 446.067 498.577 C 445.055 489.518, 445.039 489.688, 449.197 465.250 L 452.302 447 558.845 447 C 623.388 447, 670.928 446.588, 679.443 445.954 C 717.693 443.107, 747.615 434.332, 770.332 419.302 C 779.813 413.028, 795.663 397.587, 801.785 388.659 C 816.451 367.270, 825.679 341.586, 829.588 311.272 C 831.813 294.017, 831.114 269.018, 828.072 257 C 817.758 216.268, 785.037 194.042, 728 189.028 C 717.697 188.122, 561.553 187.835, 547 188.695 M 1045.802 189.105 C 1027.885 190.484, 1001.238 196.569, 984 203.217 C 975.436 206.520, 957.223 215.782, 949.533 220.744 C 911.489 245.295, 882.416 282.193, 862.657 331 C 845.940 372.294, 835.987 423.071, 835.902 467.500 C 835.832 503.723, 840.432 526.877, 852.589 551.500 C 859.064 564.615, 864.177 571.689, 875.178 582.758 C 892.996 600.686, 914.693 611.530, 947 618.656 L 959.500 621.413 1087 621.740 L 1214.500 622.066 1221.824 581.283 C 1225.852 558.852, 1229.366 539.727, 1229.632 538.781 C 1230.086 537.164, 1223.068 537.043, 1111.307 536.740 L 992.500 536.417 982.712 534.180 C 969.433 531.146, 963.414 528.755, 954.659 523.040 C 926.364 504.569, 919.012 466.651, 931.092 401.500 C 937.179 368.673, 947.446 340.734, 960.860 320.500 C 967.130 311.041, 980.888 297.277, 989.824 291.523 C 1003.605 282.650, 1015.647 278.184, 1034.349 275.010 C 1045.749 273.076, 1050.594 273, 1162.020 273 L 1277.841 273 1278.404 270.250 C 1279.805 263.404, 1293 190.011, 1293 189.064 C 1293 187.778, 1062.542 187.817, 1045.802 189.105 M 2648.968 188.989 C 2631.382 190.385, 2608.783 195.160, 2594.731 200.449 C 2584.718 204.218, 2570.613 211.480, 2561 217.817 C 2549.813 225.190, 2530.285 244.726, 2522.332 256.500 C 2511.618 272.361, 2501.776 294.246, 2497.093 312.622 C 2494.639 322.251, 2465.594 481.706, 2464.060 493.974 C 2462.556 505.994, 2462.754 526.936, 2464.471 537.523 C 2471.758 582.447, 2500.496 609.417, 2551.500 619.199 L 2563.500 621.500 2710.440 621.500 L 2857.380 621.500 2865 579.500 L 2872.620 537.500 2731.560 536.991 C 2592.433 536.488, 2590.403 536.453, 2583.434 534.403 C 2568.786 530.096, 2559.872 523.200, 2554.676 512.159 C 2551.903 506.265, 2551.499 504.266, 2551.161 494.760 C 2550.845 485.860, 2551.345 480.850, 2554.079 465.510 L 2557.378 447 2663.882 447 C 2728.400 447, 2775.928 446.588, 2784.443 445.954 C 2815.961 443.608, 2839.738 437.842, 2860.500 427.510 C 2875.493 420.048, 2882.219 415.253, 2893.826 403.751 C 2915.699 382.076, 2929.501 350.700, 2934.623 311.006 C 2936.865 293.637, 2936.111 267.759, 2933.036 256.500 C 2924.263 224.378, 2903.451 204.889, 2867 194.663 C 2845.898 188.742, 2844.615 188.676, 2747.500 188.445 C 2698.550 188.328, 2654.210 188.573, 2648.968 188.989 M 2974.645 189.250 C 2975.064 189.938, 3010.892 236.801, 3054.263 293.391 C 3097.633 349.981, 3132.754 396.611, 3132.309 397.014 C 3131.864 397.417, 3075.124 448.203, 3006.219 509.873 L 2880.938 622 2935.719 621.981 L 2990.500 621.963 3083.328 538.870 C 3168.720 462.433, 3176.262 455.926, 3177.480 457.639 C 3178.208 458.662, 3205.562 495.950, 3238.266 540.500 L 3297.729 621.500 3353.451 621.758 C 3387.042 621.914, 3409.039 621.652, 3408.836 621.097 C 3408.651 620.592, 3371.600 571.978, 3326.500 513.067 C 3281.400 454.156, 3244.359 405.544, 3244.187 405.041 C 3244.016 404.537, 3298.353 355.694, 3364.937 296.502 C 3431.522 237.310, 3486 188.682, 3486 188.440 C 3486 188.198, 3461.575 188, 3431.721 188 L 3377.443 188 3294.971 260.630 C 3249.612 300.576, 3209.575 335.839, 3206 338.992 L 3199.500 344.724 3142 266.372 L 3084.500 188.020 3029.191 188.010 C 2985.202 188.002, 2974.038 188.256, 2974.645 189.250 M 3489.515 189.250 C 3488.909 191.042, 3443.473 441.021, 3441.030 456 C 3432.651 507.378, 3443.434 550.723, 3471.754 579.507 C 3491.704 599.784, 3518.521 612.479, 3555.500 619.154 C 3568.341 621.471, 3569.367 621.500, 3639.500 621.500 C 3708.932 621.500, 3710.787 621.450, 3723.500 619.221 C 3750.991 614.401, 3769.919 608.546, 3790.500 598.498 C 3825.949 581.191, 3851.801 557.565, 3872.016 524.003 C 3881.933 507.538, 3888.327 492.482, 3894.100 472 C 3895.727 466.225, 3908.075 400.975, 3921.539 327 C 3935.003 253.025, 3946.249 191.488, 3946.529 190.250 L 3947.038 188 3903.988 188 C 3870.424 188, 3860.851 188.275, 3860.544 189.250 C 3860.328 189.938, 3849.270 250.342, 3835.970 323.483 C 3819.972 411.465, 3810.936 458.841, 3809.269 463.483 C 3794.493 504.625, 3758.194 530.970, 3709.282 536.050 C 3702.200 536.785, 3681.513 537.021, 3649 536.738 C 3595.182 536.269, 3594.206 536.179, 3576.239 530.049 C 3564.654 526.097, 3557.776 521.756, 3548.272 512.401 C 3534.951 499.288, 3529.565 485.534, 3529.709 465 C 3529.784 454.490, 3531.865 442.141, 3553.895 321.522 C 3567.153 248.935, 3578 189.197, 3578 188.772 C 3578 188.348, 3558.186 188, 3533.969 188 C 3499.635 188, 3489.844 188.275, 3489.515 189.250 M 4108.978 189.070 C 4036.583 195.074, 3990.279 231.255, 3972.365 295.817 C 3968.839 308.524, 3965.998 326.755, 3965.324 341 C 3962.949 391.222, 3986.874 422.988, 4036.500 435.499 C 4058.287 440.993, 4062.929 441.276, 4143.500 442.021 C 4208.692 442.624, 4219.235 442.929, 4224.123 444.355 C 4237.576 448.281, 4243.610 452.469, 4247.641 460.677 C 4250.293 466.079, 4250.497 467.332, 4250.461 478 C 4250.378 502.750, 4240.825 521.023, 4223.500 529.572 C 4208.908 536.772, 4217.578 536.362, 4067.519 536.961 L 3932.538 537.500 3925.448 576.500 C 3921.549 597.950, 3918.064 616.962, 3917.704 618.750 L 3917.050 622 4053.474 622 C 4169.008 622, 4191.650 621.770, 4201.344 620.499 C 4271.362 611.321, 4316.509 571.252, 4333.051 503.608 C 4342.883 463.406, 4339.937 429.953, 4324.700 408.782 C 4312.610 391.983, 4296.375 381.874, 4270.295 374.906 C 4248.442 369.068, 4244.331 368.806, 4162 368.007 C 4081.809 367.229, 4079.807 367.105, 4068.723 362.201 C 4062.941 359.644, 4057.352 354.597, 4054.762 349.595 C 4050 340.397, 4052.085 316.989, 4058.948 302.609 C 4065.125 289.665, 4076.992 280.032, 4092.500 275.372 C 4098.106 273.687, 4107.026 273.534, 4228.481 273.035 L 4358.462 272.500 4365.552 233.500 C 4369.451 212.050, 4372.936 193.037, 4373.296 191.250 L 4373.950 188 4246.225 188.140 C 4175.976 188.217, 4114.215 188.635, 4108.978 189.070 M 532.660 274.048 C 504.106 278.840, 484.267 295.339, 476.097 321.086 C 474.978 324.614, 472.239 337.625, 470.010 350 C 467.782 362.375, 465.707 373.738, 465.400 375.250 L 464.841 378 569.171 377.992 C 633.109 377.987, 676.984 377.591, 682.500 376.969 C 694.775 375.584, 702.224 373.607, 710.500 369.536 C 724.058 362.868, 732.920 352.547, 738.401 337.044 C 741.180 329.185, 741.425 327.416, 741.461 314.986 C 741.499 301.684, 741.448 301.366, 738.200 294.762 C 732.983 284.155, 723.411 277.587, 708.792 274.583 C 702.099 273.208, 690.315 273.015, 619.292 273.118 C 574.306 273.182, 535.322 273.601, 532.660 274.048 M 2634 274.962 C 2617.591 278.477, 2606.227 284.430, 2596.555 294.576 C 2584.915 306.788, 2580.973 317.005, 2574.980 350.500 C 2572.717 363.150, 2570.621 374.512, 2570.324 375.750 L 2569.783 378 2674.142 377.992 C 2777.952 377.984, 2789.601 377.664, 2802.500 374.467 C 2817.261 370.808, 2830.951 361.032, 2837.933 349.165 C 2844.419 338.138, 2846.498 329.722, 2846.499 314.482 C 2846.500 301.782, 2846.420 301.301, 2843.208 294.774 C 2837.906 283.998, 2828.676 277.666, 2813.792 274.592 C 2807.092 273.208, 2795.387 273.009, 2724.292 273.070 C 2649.123 273.135, 2641.812 273.288, 2634 274.962" stroke="none" fill="rgb(0, 81, 121)" fill-rule="evenodd"/></svg>